<svg width="28" height="27" viewBox="0 0 28 27" fill="none" xmlns="http://www.w3.org/2000/svg">
<path d="M2.94727 11.7413C2.94727 9.32624 4.90509 7.36842 7.32019 7.36842V7.36842C8.0199 7.36842 8.65229 6.95143 8.92793 6.30828L9.2702 5.50964C9.7927 4.29047 10.9915 3.5 12.3179 3.5H13.9999H15.6819C17.0083 3.5 18.2071 4.29047 18.7296 5.50964L19.0719 6.30828C19.3475 6.95142 19.9799 7.36842 20.6796 7.36842V7.36842C23.0947 7.36842 25.0525 9.32624 25.0525 11.7413V17.3158C25.0525 20.3679 22.5783 22.8421 19.5262 22.8421H8.47358C5.42148 22.8421 2.94727 20.3679 2.94727 17.3158V11.7413Z" stroke="#00A3A5" stroke-width="1.65789"/>
<circle cx="3.31579" cy="3.31579" r="3.31579" transform="matrix(-1 0 0 1 17.3157 10.6841)" stroke="#00A3A5" stroke-width="1.65789"/>
</svg>
