<svg width="46" height="46" viewBox="0 0 46 46" fill="none" xmlns="http://www.w3.org/2000/svg">
<path opacity="0.2" d="M41.6875 10.0625V35.9375H28.75C27.225 35.9375 25.7625 36.5433 24.6841 37.6216C23.6058 38.7 23 40.1625 23 41.6875V15.8125C23 14.2875 23.6058 12.825 24.6841 11.7466C25.7625 10.6683 27.225 10.0625 28.75 10.0625H41.6875Z" fill="#00A3A5"/>
<path d="M41.6875 8.625H28.75C27.6342 8.625 26.5337 8.88479 25.5357 9.3838C24.5376 9.88282 23.6695 10.6073 23 11.5C22.3305 10.6073 21.4624 9.88282 20.4643 9.3838C19.4663 8.88479 18.3658 8.625 17.25 8.625H4.3125C3.93125 8.625 3.56562 8.77645 3.29603 9.04603C3.02645 9.31562 2.875 9.68125 2.875 10.0625V35.9375C2.875 36.3187 3.02645 36.6844 3.29603 36.954C3.56562 37.2236 3.93125 37.375 4.3125 37.375H17.25C18.3937 37.375 19.4906 37.8294 20.2994 38.6381C21.1081 39.4469 21.5625 40.5438 21.5625 41.6875C21.5625 42.0687 21.714 42.4344 21.9835 42.704C22.2531 42.9735 22.6188 43.125 23 43.125C23.3812 43.125 23.7469 42.9735 24.0165 42.704C24.2861 42.4344 24.4375 42.0687 24.4375 41.6875C24.4375 40.5438 24.8919 39.4469 25.7006 38.6381C26.5094 37.8294 27.6063 37.375 28.75 37.375H41.6875C42.0687 37.375 42.4344 37.2236 42.704 36.954C42.9735 36.6844 43.125 36.3187 43.125 35.9375V10.0625C43.125 9.68125 42.9735 9.31562 42.704 9.04603C42.4344 8.77645 42.0687 8.625 41.6875 8.625ZM17.25 34.5H5.75V11.5H17.25C18.3937 11.5 19.4906 11.9544 20.2994 12.7631C21.1081 13.5719 21.5625 14.6688 21.5625 15.8125V35.9375C20.3195 35.0022 18.8056 34.4975 17.25 34.5ZM40.25 34.5H28.75C27.1944 34.4975 25.6805 35.0022 24.4375 35.9375V15.8125C24.4375 14.6688 24.8919 13.5719 25.7006 12.7631C26.5094 11.9544 27.6063 11.5 28.75 11.5H40.25V34.5ZM28.75 15.8125H35.9375C36.3187 15.8125 36.6844 15.964 36.954 16.2335C37.2235 16.5031 37.375 16.8688 37.375 17.25C37.375 17.6312 37.2235 17.9969 36.954 18.2665C36.6844 18.536 36.3187 18.6875 35.9375 18.6875H28.75C28.3688 18.6875 28.0031 18.536 27.7335 18.2665C27.4639 17.9969 27.3125 17.6312 27.3125 17.25C27.3125 16.8688 27.4639 16.5031 27.7335 16.2335C28.0031 15.964 28.3688 15.8125 28.75 15.8125ZM37.375 23C37.375 23.3812 37.2235 23.7469 36.954 24.0165C36.6844 24.2861 36.3187 24.4375 35.9375 24.4375H28.75C28.3688 24.4375 28.0031 24.2861 27.7335 24.0165C27.4639 23.7469 27.3125 23.3812 27.3125 23C27.3125 22.6188 27.4639 22.2531 27.7335 21.9835C28.0031 21.714 28.3688 21.5625 28.75 21.5625H35.9375C36.3187 21.5625 36.6844 21.714 36.954 21.9835C37.2235 22.2531 37.375 22.6188 37.375 23ZM37.375 28.75C37.375 29.1312 37.2235 29.4969 36.954 29.7665C36.6844 30.0361 36.3187 30.1875 35.9375 30.1875H28.75C28.3688 30.1875 28.0031 30.0361 27.7335 29.7665C27.4639 29.4969 27.3125 29.1312 27.3125 28.75C27.3125 28.3688 27.4639 28.0031 27.7335 27.7335C28.0031 27.4639 28.3688 27.3125 28.75 27.3125H35.9375C36.3187 27.3125 36.6844 27.4639 36.954 27.7335C37.2235 28.0031 37.375 28.3688 37.375 28.75Z" fill="#00A3A5"/>
</svg>
