<svg width="79" height="79" viewBox="0 0 79 79" fill="none" xmlns="http://www.w3.org/2000/svg">
<path d="M31.1021 8.33371C48.2794 3.73112 65.9352 13.9247 70.5379 31.102C75.1405 48.2793 64.9469 65.9351 47.7696 70.5378C30.5922 75.1404 12.9364 64.9469 8.33377 47.7695C3.7312 30.5922 13.9248 12.9364 31.1021 8.33371ZM32.5144 13.6048C18.2486 17.4274 9.7824 32.0913 13.6049 46.3572C17.4274 60.6231 32.0913 69.0892 46.3572 65.2667C60.6231 61.4441 69.0893 46.7803 65.2668 32.5144C61.4442 18.2485 46.7803 9.78232 32.5144 13.6048ZM34.3621 24.4057C34.9588 24.2224 39.5631 22.8829 43.8287 25.8222C46.1119 27.3954 47.2606 29.4846 47.8299 30.9749C49.2166 30.6704 50.5963 30.6249 51.9167 30.7948L51.7843 30.6746C53.1882 30.6923 54.4252 30.7412 55.4662 30.7981C56.9103 30.8768 57.7275 30.9596 58.5137 31.5314C59.1682 32.0079 59.5558 32.645 60.0339 33.8427C60.4767 34.953 61.0159 36.5866 61.3341 38.7142C61.3345 38.716 61.3352 38.718 61.3356 38.7199L61.3945 38.9963C62.4164 44.2181 58.5772 50.0587 52.4167 51.4816L41.8925 54.3016C41.0136 54.5371 40.1103 54.0155 39.8748 53.1367C39.6397 52.258 40.161 51.3544 41.0397 51.1189L51.5885 48.2924C51.6084 48.2871 51.6293 48.2827 51.6494 48.2781C56.298 47.2188 58.8042 42.9163 58.161 39.6291L58.1233 39.4542C57.2723 35.7841 52.3584 32.6551 47.2991 34.5596C46.8474 34.7297 46.344 34.6932 45.9216 34.4596C45.4993 34.226 45.2007 33.819 45.1046 33.346C44.993 32.7965 44.4282 30.3693 42.1821 28.6949L41.9593 28.5352C39.0223 26.5112 35.7516 27.4261 35.3305 27.5554C34.4607 27.8227 33.5382 27.3341 33.2709 26.4644C33.0038 25.5948 33.4926 24.673 34.3621 24.4057ZM22.5641 26.8148C27.2285 25.2238 32.187 27.9283 33.443 32.6158C33.842 34.1051 33.8174 35.6062 33.443 36.9924L31.9386 44.7274L31.916 44.7335L30.778 50.5909C30.5656 51.6825 29.1909 52.051 28.4613 51.2116L24.548 46.7077L24.5244 46.714L19.355 40.7673C18.2673 39.6819 17.4587 38.2838 17.0879 36.6604C16.1381 32.4874 18.5206 28.1954 22.5641 26.8148ZM39.9577 33.8294C41.0874 33.5269 42.2489 34.1976 42.5519 35.3272C42.8546 36.457 42.1839 37.6184 41.0541 37.9214C39.9241 38.2242 38.7627 37.5536 38.4599 36.4236C38.1574 35.2938 38.8278 34.1321 39.9577 33.8294ZM24.2251 30.7687C22.0527 31.3509 20.7645 33.5875 21.3476 35.7637C21.9309 37.9396 24.1645 39.2318 26.3369 38.6498C28.5092 38.0677 29.7984 35.8316 29.2156 33.6555C28.6324 31.4793 26.3976 30.1866 24.2251 30.7687Z" fill="#ABABAB"/>
<circle cx="39.5" cy="39.5" r="35.5" stroke="#ABABAB" stroke-width="2"/>
</svg>
