<svg width="79" height="79" viewBox="0 0 79 79" fill="none" xmlns="http://www.w3.org/2000/svg">
<path d="M31.1021 8.33371C48.2794 3.73112 65.9352 13.9247 70.5379 31.102C75.1405 48.2793 64.9469 65.9351 47.7696 70.5378C30.5922 75.1404 12.9364 64.9469 8.33377 47.7695C3.7312 30.5922 13.9248 12.9364 31.1021 8.33371ZM32.5144 13.6048C18.2486 17.4274 9.7824 32.0913 13.6049 46.3572C17.4274 60.6231 32.0913 69.0892 46.3572 65.2667C60.6231 61.4441 69.0893 46.7803 65.2668 32.5144C61.4442 18.2485 46.7803 9.78232 32.5144 13.6048Z" fill="#ABABAB"/>
<circle cx="39.5" cy="39.5" r="35.5" stroke="#ABABAB" stroke-width="2"/>
<path d="M44.0406 37.5137H54.2973V50.5677C54.2973 54.6875 50.9576 58.0272 46.8379 58.0272H31.9189C27.7992 58.0272 24.4595 54.6875 24.4595 50.5677V37.5137H34.7162" stroke="#ABABAB" stroke-width="2.7973"/>
<path d="M47.7702 37.5133H53.3648C54.9097 37.5133 56.1621 36.2609 56.1621 34.716V30.9863C56.1621 29.4414 54.9097 28.189 53.3648 28.189H25.3918C23.8469 28.189 22.5945 29.4414 22.5945 30.9863V34.716C22.5945 36.2609 23.8469 37.5133 25.3918 37.5133H30.9864" stroke="#ABABAB" stroke-width="2.7973"/>
<path d="M39.3784 25.3917C39.3784 22.8168 41.4657 20.7295 44.0406 20.7295H44.973C47.0329 20.7295 48.7027 22.3993 48.7027 24.4592V24.4592C48.7027 26.5191 47.0329 28.189 44.973 28.189H39.3784V25.3917Z" stroke="#ABABAB" stroke-width="2.7973"/>
<path d="M39.3784 25.3917C39.3784 22.8168 37.2911 20.7295 34.7163 20.7295H33.7838C31.724 20.7295 30.0541 22.3993 30.0541 24.4592V24.4592C30.0541 26.5191 31.7239 28.189 33.7838 28.189H39.3784V25.3917Z" stroke="#ABABAB" stroke-width="2.7973"/>
<path d="M44.0405 28.189L44.0405 58.0268L34.7162 58.0268L34.7162 28.189L44.0405 28.189Z" stroke="#ABABAB" stroke-width="2.7973"/>
</svg>
