<svg width="50" height="50" viewBox="0 0 50 50" fill="none" xmlns="http://www.w3.org/2000/svg">
<path d="M24.4998 3.57288C34.3509 3.57288 42.3649 11.4798 42.365 21.2672C42.365 27.3545 38.8147 33.3627 35.0525 37.736C33.1486 39.949 31.1279 41.8174 29.3455 43.1461C28.4558 43.8094 27.6007 44.357 26.8289 44.7457C26.1052 45.1102 25.2781 45.4274 24.4998 45.4274C23.7215 45.4273 22.8952 45.1101 22.1716 44.7457C21.3997 44.357 20.5447 43.8094 19.655 43.1461C17.8727 41.8174 15.8518 39.949 13.948 37.736C10.1858 33.3627 6.6355 27.3545 6.6355 21.2672C6.63556 11.4799 14.6488 3.57305 24.4998 3.57288ZM24.4998 14.2916C21.1172 14.2918 18.3748 17.034 18.3748 20.4166C18.3748 23.7993 21.1172 26.5414 24.4998 26.5416C27.8825 26.5416 30.6248 23.7994 30.6248 20.4166C30.6248 17.0339 27.8825 14.2916 24.4998 14.2916Z" fill="#00A3A5"/>
</svg>
