<svg width="28" height="28" viewBox="0 0 28 28" fill="none" xmlns="http://www.w3.org/2000/svg">
<mask id="path-1-inside-1_474_3535" fill="white">
<path d="M22.6813 8.55898C22.0889 8.55898 21.5097 8.73468 21.017 9.06384C20.5244 9.39301 20.1405 9.86087 19.9137 10.4082C19.687 10.9556 19.6277 11.558 19.7433 12.1391C19.8588 12.7202 20.1441 13.2539 20.5631 13.6729C20.982 14.0918 21.5158 14.3771 22.0969 14.4927C22.678 14.6083 23.2803 14.549 23.8277 14.3223C24.3751 14.0955 24.843 13.7116 25.1721 13.2189C25.5013 12.7263 25.677 12.1471 25.677 11.5546C25.677 10.7601 25.3614 9.99818 24.7996 9.43639C24.2378 8.8746 23.4758 8.55898 22.6813 8.55898ZM22.6813 12.8385C22.4274 12.8385 22.1792 12.7632 21.9681 12.6221C21.7569 12.481 21.5924 12.2805 21.4952 12.0459C21.398 11.8113 21.3726 11.5532 21.4222 11.3042C21.4717 11.0551 21.594 10.8264 21.7735 10.6468C21.9531 10.4673 22.1818 10.345 22.4309 10.2955C22.6799 10.2459 22.9381 10.2713 23.1726 10.3685C23.4072 10.4657 23.6077 10.6302 23.7488 10.8414C23.8899 11.0525 23.9652 11.3007 23.9652 11.5546C23.9652 11.8951 23.8299 12.2217 23.5892 12.4625C23.3484 12.7032 23.0218 12.8385 22.6813 12.8385ZM7.70309 11.5546C7.70309 10.9622 7.5274 10.383 7.19823 9.89034C6.86907 9.39771 6.40121 9.01375 5.85383 8.78701C5.30644 8.56028 4.70412 8.50096 4.12302 8.61655C3.54192 8.73213 3.00815 9.01744 2.5892 9.43639C2.17025 9.85534 1.88494 10.3891 1.76935 10.9702C1.65377 11.5513 1.71309 12.1536 1.93982 12.701C2.16656 13.2484 2.55052 13.7163 3.04315 14.0454C3.53578 14.3746 4.11496 14.5503 4.70744 14.5503C5.50194 14.5503 6.26389 14.2347 6.82569 13.6729C7.38748 13.1111 7.70309 12.3491 7.70309 11.5546ZM4.70744 12.8385C4.45352 12.8385 4.2053 12.7632 3.99417 12.6221C3.78305 12.481 3.61849 12.2805 3.52132 12.0459C3.42415 11.8113 3.39872 11.5532 3.44826 11.3042C3.4978 11.0551 3.62007 10.8264 3.79962 10.6468C3.97917 10.4673 4.20793 10.345 4.45698 10.2955C4.70602 10.2459 4.96416 10.2713 5.19875 10.3685C5.43334 10.4657 5.63385 10.6302 5.77492 10.8414C5.916 11.0525 5.99129 11.3007 5.99129 11.5546C5.99129 11.8951 5.85603 12.2217 5.61526 12.4625C5.37449 12.7032 5.04794 12.8385 4.70744 12.8385ZM9.84284 9.41488C10.4353 9.41488 11.0145 9.23919 11.5071 8.91003C11.9998 8.58086 12.3837 8.113 12.6105 7.56562C12.8372 7.01824 12.8965 6.41591 12.7809 5.83481C12.6653 5.25371 12.38 4.71994 11.9611 4.30099C11.5421 3.88204 11.0084 3.59673 10.4273 3.48115C9.84617 3.36556 9.24384 3.42488 8.69646 3.65162C8.14907 3.87835 7.68122 4.26231 7.35205 4.75494C7.02288 5.24757 6.84719 5.82675 6.84719 6.41923C6.84719 7.21373 7.1628 7.97569 7.7246 8.53748C8.28639 9.09927 9.04835 9.41488 9.84284 9.41488ZM9.84284 5.13539C10.0968 5.13539 10.345 5.21068 10.5561 5.35175C10.7672 5.49282 10.9318 5.69333 11.029 5.92793C11.1261 6.16252 11.1516 6.42066 11.102 6.6697C11.0525 6.91874 10.9302 7.1475 10.7507 7.32705C10.5711 7.5066 10.3424 7.62888 10.0933 7.67842C9.84427 7.72795 9.58613 7.70253 9.35153 7.60536C9.11694 7.50819 8.91643 7.34363 8.77536 7.1325C8.63429 6.92138 8.55899 6.67316 8.55899 6.41923C8.55899 6.07874 8.69425 5.75218 8.93502 5.51142C9.17579 5.27065 9.50234 5.13539 9.84284 5.13539ZM17.5459 9.41488C18.1384 9.41488 18.7176 9.23919 19.2102 8.91003C19.7029 8.58086 20.0868 8.113 20.3136 7.56562C20.5403 7.01824 20.5996 6.41591 20.484 5.83481C20.3684 5.25371 20.0831 4.71994 19.6642 4.30099C19.2452 3.88204 18.7115 3.59673 18.1304 3.48115C17.5493 3.36556 16.9469 3.42488 16.3996 3.65162C15.8522 3.87835 15.3843 4.26231 15.0552 4.75494C14.726 5.24757 14.5503 5.82675 14.5503 6.41923C14.5503 7.21373 14.8659 7.97569 15.4277 8.53748C15.9895 9.09927 16.7514 9.41488 17.5459 9.41488ZM17.5459 5.13539C17.7999 5.13539 18.0481 5.21068 18.2592 5.35175C18.4703 5.49282 18.6349 5.69333 18.7321 5.92793C18.8292 6.16252 18.8547 6.42066 18.8051 6.6697C18.7556 6.91874 18.6333 7.1475 18.4538 7.32705C18.2742 7.5066 18.0455 7.62888 17.7964 7.67842C17.5474 7.72795 17.2892 7.70253 17.0546 7.60536C16.82 7.50819 16.6195 7.34363 16.4785 7.1325C16.3374 6.92138 16.2621 6.67316 16.2621 6.41923C16.2621 6.07874 16.3974 5.75218 16.6381 5.51142C16.8789 5.27065 17.2054 5.13539 17.5459 5.13539ZM20.0195 15.9261C19.5847 15.6863 19.2016 15.3631 18.8919 14.975C18.5821 14.5869 18.352 14.1416 18.2146 13.6644C17.93 12.6858 17.3355 11.8259 16.5204 11.214C15.7053 10.6022 14.7136 10.2714 13.6944 10.2714C12.6752 10.2714 11.6835 10.6022 10.8684 11.214C10.0533 11.8259 9.45875 12.6858 9.17417 13.6644C8.89927 14.6245 8.2548 15.4363 7.38213 15.9219C6.54497 16.3749 5.88273 17.094 5.50014 17.9656C5.11755 18.8372 5.03646 19.8114 5.26969 20.7343C5.50291 21.6571 6.03715 22.4758 6.78789 23.061C7.53864 23.6462 8.46304 23.9643 9.41489 23.9652C9.98531 23.9668 10.5501 23.8529 11.0753 23.6303C12.7498 22.9398 14.6294 22.9398 16.3038 23.6303C17.318 24.0714 18.4636 24.1027 19.5004 23.7177C20.5372 23.3327 21.3846 22.5613 21.8651 21.5652C22.3456 20.569 22.4218 19.4256 22.0777 18.3745C21.7337 17.3234 20.996 16.4464 20.0195 15.9272V15.9261ZM17.9739 22.2534C17.6264 22.2537 17.2824 22.1834 16.9629 22.0469C14.8666 21.181 12.5126 21.181 10.4163 22.0469C9.80711 22.3092 9.12005 22.3256 8.49905 22.0926C7.87804 21.8597 7.37126 21.3955 7.08487 20.7973C6.79847 20.199 6.75468 19.5132 6.96266 18.8834C7.17063 18.2536 7.61425 17.7287 8.20058 17.4186C8.831 17.0705 9.3866 16.6015 9.83563 16.0384C10.2847 15.4754 10.6183 14.8294 10.8175 14.1373C10.9984 13.5142 11.3767 12.9667 11.8955 12.577C12.4143 12.1874 13.0456 11.9768 13.6944 11.9768C14.3432 11.9768 14.9745 12.1874 15.4933 12.577C16.0121 12.9667 16.3904 13.5142 16.5713 14.1373C16.7711 14.8307 17.1058 15.4778 17.5561 16.0416C18.0065 16.6054 18.5636 17.0748 19.1957 17.4229C19.7005 17.6936 20.1003 18.1254 20.3314 18.6495C20.5626 19.1736 20.6119 19.76 20.4714 20.3153C20.3309 20.8707 20.0088 21.3631 19.5563 21.7143C19.1037 22.0654 18.5467 22.2552 17.9739 22.2534Z"/>
</mask>
<path d="M22.6813 8.55898C22.0889 8.55898 21.5097 8.73468 21.017 9.06384C20.5244 9.39301 20.1405 9.86087 19.9137 10.4082C19.687 10.9556 19.6277 11.558 19.7433 12.1391C19.8588 12.7202 20.1441 13.2539 20.5631 13.6729C20.982 14.0918 21.5158 14.3771 22.0969 14.4927C22.678 14.6083 23.2803 14.549 23.8277 14.3223C24.3751 14.0955 24.843 13.7116 25.1721 13.2189C25.5013 12.7263 25.677 12.1471 25.677 11.5546C25.677 10.7601 25.3614 9.99818 24.7996 9.43639C24.2378 8.8746 23.4758 8.55898 22.6813 8.55898ZM22.6813 12.8385C22.4274 12.8385 22.1792 12.7632 21.9681 12.6221C21.7569 12.481 21.5924 12.2805 21.4952 12.0459C21.398 11.8113 21.3726 11.5532 21.4222 11.3042C21.4717 11.0551 21.594 10.8264 21.7735 10.6468C21.9531 10.4673 22.1818 10.345 22.4309 10.2955C22.6799 10.2459 22.9381 10.2713 23.1726 10.3685C23.4072 10.4657 23.6077 10.6302 23.7488 10.8414C23.8899 11.0525 23.9652 11.3007 23.9652 11.5546C23.9652 11.8951 23.8299 12.2217 23.5892 12.4625C23.3484 12.7032 23.0218 12.8385 22.6813 12.8385ZM7.70309 11.5546C7.70309 10.9622 7.5274 10.383 7.19823 9.89034C6.86907 9.39771 6.40121 9.01375 5.85383 8.78701C5.30644 8.56028 4.70412 8.50096 4.12302 8.61655C3.54192 8.73213 3.00815 9.01744 2.5892 9.43639C2.17025 9.85534 1.88494 10.3891 1.76935 10.9702C1.65377 11.5513 1.71309 12.1536 1.93982 12.701C2.16656 13.2484 2.55052 13.7163 3.04315 14.0454C3.53578 14.3746 4.11496 14.5503 4.70744 14.5503C5.50194 14.5503 6.26389 14.2347 6.82569 13.6729C7.38748 13.1111 7.70309 12.3491 7.70309 11.5546ZM4.70744 12.8385C4.45352 12.8385 4.2053 12.7632 3.99417 12.6221C3.78305 12.481 3.61849 12.2805 3.52132 12.0459C3.42415 11.8113 3.39872 11.5532 3.44826 11.3042C3.4978 11.0551 3.62007 10.8264 3.79962 10.6468C3.97917 10.4673 4.20793 10.345 4.45698 10.2955C4.70602 10.2459 4.96416 10.2713 5.19875 10.3685C5.43334 10.4657 5.63385 10.6302 5.77492 10.8414C5.916 11.0525 5.99129 11.3007 5.99129 11.5546C5.99129 11.8951 5.85603 12.2217 5.61526 12.4625C5.37449 12.7032 5.04794 12.8385 4.70744 12.8385ZM9.84284 9.41488C10.4353 9.41488 11.0145 9.23919 11.5071 8.91003C11.9998 8.58086 12.3837 8.113 12.6105 7.56562C12.8372 7.01824 12.8965 6.41591 12.7809 5.83481C12.6653 5.25371 12.38 4.71994 11.9611 4.30099C11.5421 3.88204 11.0084 3.59673 10.4273 3.48115C9.84617 3.36556 9.24384 3.42488 8.69646 3.65162C8.14907 3.87835 7.68122 4.26231 7.35205 4.75494C7.02288 5.24757 6.84719 5.82675 6.84719 6.41923C6.84719 7.21373 7.1628 7.97569 7.7246 8.53748C8.28639 9.09927 9.04835 9.41488 9.84284 9.41488ZM9.84284 5.13539C10.0968 5.13539 10.345 5.21068 10.5561 5.35175C10.7672 5.49282 10.9318 5.69333 11.029 5.92793C11.1261 6.16252 11.1516 6.42066 11.102 6.6697C11.0525 6.91874 10.9302 7.1475 10.7507 7.32705C10.5711 7.5066 10.3424 7.62888 10.0933 7.67842C9.84427 7.72795 9.58613 7.70253 9.35153 7.60536C9.11694 7.50819 8.91643 7.34363 8.77536 7.1325C8.63429 6.92138 8.55899 6.67316 8.55899 6.41923C8.55899 6.07874 8.69425 5.75218 8.93502 5.51142C9.17579 5.27065 9.50234 5.13539 9.84284 5.13539ZM17.5459 9.41488C18.1384 9.41488 18.7176 9.23919 19.2102 8.91003C19.7029 8.58086 20.0868 8.113 20.3136 7.56562C20.5403 7.01824 20.5996 6.41591 20.484 5.83481C20.3684 5.25371 20.0831 4.71994 19.6642 4.30099C19.2452 3.88204 18.7115 3.59673 18.1304 3.48115C17.5493 3.36556 16.9469 3.42488 16.3996 3.65162C15.8522 3.87835 15.3843 4.26231 15.0552 4.75494C14.726 5.24757 14.5503 5.82675 14.5503 6.41923C14.5503 7.21373 14.8659 7.97569 15.4277 8.53748C15.9895 9.09927 16.7514 9.41488 17.5459 9.41488ZM17.5459 5.13539C17.7999 5.13539 18.0481 5.21068 18.2592 5.35175C18.4703 5.49282 18.6349 5.69333 18.7321 5.92793C18.8292 6.16252 18.8547 6.42066 18.8051 6.6697C18.7556 6.91874 18.6333 7.1475 18.4538 7.32705C18.2742 7.5066 18.0455 7.62888 17.7964 7.67842C17.5474 7.72795 17.2892 7.70253 17.0546 7.60536C16.82 7.50819 16.6195 7.34363 16.4785 7.1325C16.3374 6.92138 16.2621 6.67316 16.2621 6.41923C16.2621 6.07874 16.3974 5.75218 16.6381 5.51142C16.8789 5.27065 17.2054 5.13539 17.5459 5.13539ZM20.0195 15.9261C19.5847 15.6863 19.2016 15.3631 18.8919 14.975C18.5821 14.5869 18.352 14.1416 18.2146 13.6644C17.93 12.6858 17.3355 11.8259 16.5204 11.214C15.7053 10.6022 14.7136 10.2714 13.6944 10.2714C12.6752 10.2714 11.6835 10.6022 10.8684 11.214C10.0533 11.8259 9.45875 12.6858 9.17417 13.6644C8.89927 14.6245 8.2548 15.4363 7.38213 15.9219C6.54497 16.3749 5.88273 17.094 5.50014 17.9656C5.11755 18.8372 5.03646 19.8114 5.26969 20.7343C5.50291 21.6571 6.03715 22.4758 6.78789 23.061C7.53864 23.6462 8.46304 23.9643 9.41489 23.9652C9.98531 23.9668 10.5501 23.8529 11.0753 23.6303C12.7498 22.9398 14.6294 22.9398 16.3038 23.6303C17.318 24.0714 18.4636 24.1027 19.5004 23.7177C20.5372 23.3327 21.3846 22.5613 21.8651 21.5652C22.3456 20.569 22.4218 19.4256 22.0777 18.3745C21.7337 17.3234 20.996 16.4464 20.0195 15.9272V15.9261ZM17.9739 22.2534C17.6264 22.2537 17.2824 22.1834 16.9629 22.0469C14.8666 21.181 12.5126 21.181 10.4163 22.0469C9.80711 22.3092 9.12005 22.3256 8.49905 22.0926C7.87804 21.8597 7.37126 21.3955 7.08487 20.7973C6.79847 20.199 6.75468 19.5132 6.96266 18.8834C7.17063 18.2536 7.61425 17.7287 8.20058 17.4186C8.831 17.0705 9.3866 16.6015 9.83563 16.0384C10.2847 15.4754 10.6183 14.8294 10.8175 14.1373C10.9984 13.5142 11.3767 12.9667 11.8955 12.577C12.4143 12.1874 13.0456 11.9768 13.6944 11.9768C14.3432 11.9768 14.9745 12.1874 15.4933 12.577C16.0121 12.9667 16.3904 13.5142 16.5713 14.1373C16.7711 14.8307 17.1058 15.4778 17.5561 16.0416C18.0065 16.6054 18.5636 17.0748 19.1957 17.4229C19.7005 17.6936 20.1003 18.1254 20.3314 18.6495C20.5626 19.1736 20.6119 19.76 20.4714 20.3153C20.3309 20.8707 20.0088 21.3631 19.5563 21.7143C19.1037 22.0654 18.5467 22.2552 17.9739 22.2534Z" fill="#ABABAB" stroke="#ABABAB" stroke-width="2.2824" mask="url(#path-1-inside-1_474_3535)"/>
</svg>
