<svg width="46" height="46" viewBox="0 0 46 46" fill="none" xmlns="http://www.w3.org/2000/svg">
<path opacity="0.2" d="M40.25 22.2812C40.25 24.4522 39.8224 26.6018 38.9916 28.6075C38.1609 30.6131 36.9432 32.4355 35.4081 33.9706C33.873 35.5057 32.0506 36.7234 30.045 37.5541C28.0393 38.3849 25.8897 38.8125 23.7188 38.8125H8.625C8.24375 38.8125 7.87812 38.6611 7.60853 38.3915C7.33895 38.1219 7.1875 37.7562 7.1875 37.375V22.2812C7.1875 17.8969 8.92918 13.6921 12.0294 10.5919C15.1296 7.49168 19.3344 5.75 23.7188 5.75C25.8897 5.75 28.0393 6.17759 30.045 7.00837C32.0506 7.83914 33.873 9.05682 35.4081 10.5919C36.9432 12.127 38.1609 13.9494 38.9916 15.955C39.8224 17.9607 40.25 20.1103 40.25 22.2812Z" fill="#00A3A5"/>
<path d="M30.9062 20.125C30.9062 20.5062 30.7548 20.8719 30.4852 21.1415C30.2156 21.411 29.85 21.5625 29.4688 21.5625H17.25C16.8688 21.5625 16.5031 21.411 16.2335 21.1415C15.964 20.8719 15.8125 20.5062 15.8125 20.125C15.8125 19.7438 15.964 19.3781 16.2335 19.1085C16.5031 18.839 16.8688 18.6875 17.25 18.6875H29.4688C29.85 18.6875 30.2156 18.839 30.4852 19.1085C30.7548 19.3781 30.9062 19.7438 30.9062 20.125ZM29.4688 24.4375H17.25C16.8688 24.4375 16.5031 24.5889 16.2335 24.8585C15.964 25.1281 15.8125 25.4938 15.8125 25.875C15.8125 26.2562 15.964 26.6219 16.2335 26.8915C16.5031 27.1611 16.8688 27.3125 17.25 27.3125H29.4688C29.85 27.3125 30.2156 27.1611 30.4852 26.8915C30.7548 26.6219 30.9062 26.2562 30.9062 25.875C30.9062 25.4938 30.7548 25.1281 30.4852 24.8585C30.2156 24.5889 29.85 24.4375 29.4688 24.4375ZM41.6875 22.2812C41.6823 27.0453 39.7875 31.6126 36.4188 34.9813C33.0501 38.35 28.4828 40.2448 23.7188 40.25H8.625C7.8625 40.25 7.13123 39.9471 6.59207 39.4079C6.0529 38.8688 5.75 38.1375 5.75 37.375V22.2812C5.75 17.5156 7.64313 12.9452 11.0129 9.57542C14.3827 6.20563 18.9531 4.3125 23.7188 4.3125C28.4844 4.3125 33.0548 6.20563 36.4246 9.57542C39.7944 12.9452 41.6875 17.5156 41.6875 22.2812ZM38.8125 22.2812C38.8125 18.2781 37.2223 14.439 34.3916 11.6084C31.561 8.77773 27.7219 7.1875 23.7188 7.1875C19.7156 7.1875 15.8765 8.77773 13.0459 11.6084C10.2152 14.439 8.625 18.2781 8.625 22.2812V37.375H23.7188C27.7205 37.3707 31.5572 35.7791 34.3869 32.9494C37.2166 30.1197 38.8082 26.283 38.8125 22.2812Z" fill="#00A3A5"/>
</svg>
