<svg width="339" height="107" viewBox="0 0 339 107" fill="none" xmlns="http://www.w3.org/2000/svg">
<path d="M252 0C257.523 1.25606e-06 262 4.47715 262 10V97C262 102.523 257.523 107 252 107H10C4.47715 107 5.11546e-07 102.523 0 97V72C9.94113 72 18 63.9411 18 54C18 44.0589 9.94113 36 0 36V10C0 4.47715 4.47715 0 10 0H252Z" fill="white"/>
<path d="M262 10C262 4.47715 266.477 0 272 0H329C334.523 0 339 4.47715 339 10V97C339 102.523 334.523 107 329 107H272C266.477 107 262 102.523 262 97V10Z" fill="white"/>
<line x1="262.5" y1="18" x2="262.5" y2="90" stroke="#858585" stroke-dasharray="2 2"/>
</svg>
