<svg width="46" height="46" viewBox="0 0 46 46" fill="none" xmlns="http://www.w3.org/2000/svg">
<path opacity="0.2" d="M27.3125 34.5002H37.375V36.6565C37.375 37.9909 36.8449 39.2706 35.9014 40.2141C34.9578 41.1577 33.6781 41.6877 32.3437 41.6877C31.0094 41.6877 29.7296 41.1577 28.7861 40.2141C27.8425 39.2706 27.3125 37.9909 27.3125 36.6565V34.5002ZM8.62497 32.344C8.62497 33.6784 9.15505 34.9581 10.0986 35.9016C11.0421 36.8452 12.3219 37.3752 13.6562 37.3752C14.9906 37.3752 16.2703 36.8452 17.2139 35.9016C18.1574 34.9581 18.6875 33.6784 18.6875 32.344V30.1877H8.62497V32.344ZM13.6562 4.31274C9.25028 4.31274 4.4095 18.6877 9.11732 24.4377H18.1951C22.9029 18.6877 18.0622 4.31274 13.6562 4.31274ZM36.8826 28.7502C41.5904 23.0002 36.7497 8.62524 32.3437 8.62524C27.9378 8.62524 23.097 23.0002 27.8048 28.7502H36.8826Z" fill="#00A3A5"/>
<path d="M37.3858 33.0625H27.3125C26.9313 33.0625 26.5656 33.214 26.2961 33.4835C26.0265 33.7531 25.875 34.1188 25.875 34.5V36.6563C25.875 38.3731 26.557 40.0196 27.771 41.2335C28.985 42.4475 30.6315 43.1295 32.3483 43.1295C34.0651 43.1295 35.7116 42.4475 36.9255 41.2335C38.1395 40.0196 38.8215 38.3731 38.8215 36.6563V34.5C38.8215 34.1191 38.6703 33.7537 38.4011 33.4842C38.1319 33.2146 37.7668 33.063 37.3858 33.0625ZM35.9483 36.6563C35.9483 37.6094 35.5697 38.5235 34.8957 39.1974C34.2218 39.8714 33.3077 40.25 32.3546 40.25C31.4014 40.25 30.4874 39.8714 29.8134 39.1974C29.1394 38.5235 28.7608 37.6094 28.7608 36.6563V35.9375H35.9483V36.6563ZM18.6875 28.75H8.62503C8.24378 28.75 7.87815 28.9015 7.60857 29.171C7.33898 29.4406 7.18753 29.8063 7.18753 30.1875V32.3438C7.18753 34.0594 7.86906 35.7047 9.08219 36.9178C10.2953 38.131 11.9407 38.8125 13.6563 38.8125C15.3719 38.8125 17.0173 38.131 18.2304 36.9178C19.4435 35.7047 20.125 34.0594 20.125 32.3438V30.1875C20.125 29.8063 19.9736 29.4406 19.704 29.171C19.4344 28.9015 19.0688 28.75 18.6875 28.75ZM17.25 32.3438C17.25 33.2969 16.8714 34.211 16.1974 34.8849C15.5235 35.5589 14.6094 35.9375 13.6563 35.9375C12.7032 35.9375 11.7891 35.5589 11.1151 34.8849C10.4412 34.211 10.0625 33.2969 10.0625 32.3438V31.625H17.25V32.3438ZM13.6563 2.875C11.5647 2.875 9.53605 4.72758 7.94222 8.08594C5.43917 13.3652 4.60722 21.2031 7.99433 25.3359C8.12939 25.5008 8.29941 25.6335 8.49209 25.7246C8.68477 25.8157 8.89528 25.8627 9.10839 25.8624H18.1916C18.4047 25.8627 18.6152 25.8157 18.8079 25.7246C19.0006 25.6335 19.1706 25.5008 19.3057 25.3359C22.6928 21.2031 21.8608 13.3598 19.3578 8.08594C17.7621 4.72758 15.7353 2.875 13.6563 2.875ZM17.4567 23H9.84331C7.79488 19.7477 8.54777 13.5305 10.5423 9.32398C11.7049 6.86766 12.9681 5.75 13.6563 5.75C14.3445 5.75 15.6005 6.86766 16.7649 9.32398C18.7522 13.5305 19.5051 19.7477 17.4567 23ZM27.8085 30.1875H36.8917C37.1048 30.1878 37.3153 30.1407 37.508 30.0497C37.7007 29.9586 37.8707 29.8259 38.0057 29.661C41.3928 25.5282 40.5609 17.6848 38.0578 12.411C36.464 9.04008 34.4353 7.1875 32.3438 7.1875C30.2522 7.1875 28.2307 9.04008 26.6351 12.3984C24.1321 17.6777 23.3001 25.5156 26.6872 29.6484C26.8218 29.8165 26.9924 29.9522 27.1865 30.0456C27.3806 30.1389 27.5931 30.1874 27.8085 30.1875ZM29.246 13.6365C30.4068 11.1802 31.67 10.0625 32.3438 10.0625C33.0176 10.0625 34.2862 11.1802 35.4506 13.6365C37.4451 17.843 38.198 24.0584 36.1496 27.3125H28.5434C26.495 24.0602 27.2478 17.843 29.2424 13.6365H29.246Z" fill="#00A3A5"/>
</svg>
